<svg width="100" height="100" viewBox="0 0 100 100" fill="none" xmlns="http://www.w3.org/2000/svg">
    <rect width="100" height="100" rx="24" fill="white" />
    <path
        d="M91.2026 29.4008C90.2136 25.7008 87.2992 22.7864 83.5993 21.7974C76.8932 20 50 20 50 20C50 20 23.1068 20 16.4008 21.7974C12.7008 22.7864 9.7864 25.7008 8.7974 29.4008C7 36.1068 7 50.1 7 50.1C7 50.1 7 64.0932 8.7974 70.7992C9.7864 74.4992 12.7008 77.4136 16.4008 78.4026C23.1068 80.2 50 80.2 50 80.2C50 80.2 76.8932 80.2 83.5993 78.4026C87.2992 77.4136 90.2136 74.4992 91.2026 70.7992C93 64.0932 93 50.1 93 50.1C93 50.1 93 36.1068 91.2026 29.4008Z"
        fill="#FF0000" />
    <path d="M41.4 63L63.7409 50.1L41.4 37.2V63Z" fill="white" />
</svg>
